<svg width="30" height="30" viewBox="0 0 30 30" fill="none" xmlns="http://www.w3.org/2000/svg">
<path d="M3.33236 14.999H-0.000976562L14.999 -0.000976562L29.999 14.999H26.6657M3.33236 14.999V26.6657C3.33236 27.5497 3.68355 28.3976 4.30867 29.0227C4.93379 29.6478 5.78163 29.999 6.66569 29.999H23.3324C24.2164 29.999 25.0643 29.6478 25.6894 29.0227C26.3145 28.3976 26.6657 27.5497 26.6657 26.6657V14.999" fill="#023564"/>
<path d="M9.99902 29.9984V19.9984C9.99902 19.1143 10.3502 18.2665 10.9753 17.6414C11.6005 17.0162 12.4483 16.665 13.3324 16.665H16.6657C17.5497 16.665 18.3976 17.0162 19.0227 17.6414C19.6478 18.2665 19.999 19.1143 19.999 19.9984V29.9984" fill="white"/>
</svg>
