<svg width="21" height="15" viewBox="0 0 21 15" fill="none" xmlns="http://www.w3.org/2000/svg">
<path d="M17.0719 0C16.3564 0.684366 15.5056 1.21133 14.5741 1.54697C13.5918 1.72032 10.8735 0.459627 9.53398 1.74658C9.31073 1.96983 9.03495 2.19308 8.74604 2.41632C8.1157 2.14055 7.14392 1.72032 6.43478 1.31322C5.72564 0.906122 3.93966 0 3.93966 0L0 4.59627C0 4.59627 0.971783 5.90949 1.57586 6.77621C1.96983 7.35403 2.45572 8.23389 2.77089 8.82484L2.3244 9.35013C2.21824 9.56271 2.18019 9.80286 2.21544 10.0379C2.25069 10.2728 2.35752 10.4913 2.52138 10.6633C2.71104 10.8063 2.94222 10.8835 3.17975 10.883C3.41727 10.8825 3.64814 10.8045 3.83723 10.6607C3.76702 10.7429 3.71388 10.8383 3.68092 10.9412C3.64796 11.0442 3.63583 11.1527 3.64524 11.2604C3.65465 11.3681 3.68542 11.4728 3.73574 11.5685C3.78607 11.6642 3.85494 11.7489 3.93835 11.8177C4.13915 11.934 4.36719 11.995 4.59925 11.9946C4.83131 11.9941 5.05911 11.9322 5.25945 11.815C5.1094 12.0021 5.0273 12.2345 5.02659 12.4742C5.02587 12.714 5.10658 12.9469 5.25551 13.1348C5.44906 13.202 5.65555 13.2235 5.85878 13.1975C6.06202 13.1716 6.25647 13.0989 6.4269 12.9851C6.34158 13.1861 6.31938 13.4083 6.36324 13.6222C6.4071 13.8361 6.51494 14.0316 6.67247 14.1828C6.89474 14.2806 7.13809 14.3208 7.38002 14.2997C7.62194 14.2786 7.85464 14.1968 8.0566 14.062L8.73423 13.4487C9.35406 14.0659 10.209 14.448 11.1532 14.448L11.2333 14.4467C11.5445 14.4203 11.8426 14.3097 12.0957 14.1267C12.3488 13.9437 12.5473 13.6952 12.6699 13.408C12.8617 13.4815 13.0797 13.5314 13.3108 13.5314C13.6207 13.5314 13.9083 13.4421 14.1513 13.2885C14.9195 12.7803 14.7356 12.3863 14.7356 12.3863C15.0088 12.5039 15.3123 12.5318 15.6023 12.4659C15.8923 12.4001 16.154 12.2439 16.3496 12.0199C16.5529 11.8119 16.6811 11.5422 16.7139 11.2532C16.7467 10.9642 16.6823 10.6726 16.5308 10.4243C16.5392 10.429 16.5488 10.4313 16.5584 10.4309C17.1113 10.4309 17.5919 10.1262 17.8427 9.67712C17.9666 9.358 18.0086 9.01291 17.9648 8.6734C17.921 8.33388 17.7928 8.01076 17.5919 7.73355L17.5958 7.74012C18.6727 7.53 18.6333 6.99158 19.1586 6.20365C19.6553 5.56006 20.2743 5.02095 20.98 4.61728L17.0719 0ZM17.0062 9.27133C16.4284 9.84915 15.9819 9.59964 14.997 8.8511C14.0121 8.10257 12.0554 6.69742 12.0554 6.69742C12.1355 7.09795 12.3206 7.44596 12.582 7.72305C13.0009 8.19449 14.2484 9.27133 14.8394 9.82288C15.2071 10.1643 16.1526 10.8472 15.6011 11.3725C15.0495 11.8978 14.6161 11.3725 13.71 10.6371C12.8039 9.90168 10.7815 8.08943 10.7815 8.08943C10.7706 8.26313 10.7966 8.43716 10.8577 8.60011C10.9188 8.76306 11.0137 8.91125 11.1361 9.03495C11.3594 9.2976 12.6069 10.5058 13.1322 11.0573C13.6575 11.6089 14.1171 11.9372 13.6706 12.3705C13.2241 12.8039 12.318 12.121 11.819 11.6089C11.0442 10.8603 9.50771 9.46832 9.50771 9.46832L9.5064 9.53792C9.5064 9.91087 9.63509 10.2523 9.85177 10.5228C10.23 11.0192 10.9654 11.6627 11.4119 12.1617C11.8584 12.6608 12.121 13.081 11.4119 13.4749C10.7027 13.8689 9.65217 12.8971 9.19254 12.4244V12.4217C9.19397 12.2918 9.14718 12.1659 9.06122 12.0685C8.90383 11.9235 8.71003 11.8239 8.50049 11.7804C8.29094 11.737 8.07353 11.7512 7.87144 11.8216C7.95438 11.7471 8.02084 11.6561 8.06658 11.5544C8.11232 11.4527 8.13633 11.3426 8.13707 11.2311C8.13781 11.1196 8.11527 11.0092 8.07089 10.9069C8.0265 10.8046 7.96126 10.7127 7.87932 10.6371C7.70694 10.5065 7.49654 10.4359 7.28027 10.4361C7.064 10.4364 6.85375 10.5074 6.68166 10.6384C6.76868 10.5553 6.83585 10.4536 6.87819 10.341C6.92053 10.2283 6.93695 10.1076 6.92623 9.98774C6.9155 9.86788 6.87791 9.75198 6.81625 9.64864C6.75458 9.5453 6.67043 9.45719 6.57004 9.39084C6.33495 9.24312 6.05909 9.17372 5.78209 9.19259C5.50509 9.21147 5.2412 9.31765 5.02832 9.49589C5.17059 9.32345 5.24074 9.10271 5.2241 8.87978C5.20746 8.65684 5.10532 8.44895 4.93902 8.29955C4.73192 8.10793 4.46861 7.98812 4.18809 7.95784C3.90757 7.92757 3.62476 7.98844 3.38154 8.13146L2.50825 6.65671C1.90417 5.69806 1.19503 4.70001 1.19503 4.70001L4.18917 1.06239C4.18917 1.06239 5.25288 1.719 6.13274 2.21803C6.5661 2.46754 7.31463 2.79585 7.87932 3.05849C6.98633 3.72823 6.23779 4.37171 6.46104 4.8182C6.85859 5.1045 7.33415 5.26246 7.82399 5.27091C8.31382 5.27936 8.79454 5.1379 9.20173 4.86548C9.72383 4.51744 10.3379 4.33317 10.9654 4.33625C11.4211 4.33625 11.8544 4.4308 12.2471 4.60284C12.9746 5.09398 14.3141 6.30214 15.5354 7.06381C17.0719 8.18005 17.3739 8.90232 17.0062 9.27002V9.27133Z" fill="#023564"/>
</svg>
