<svg width="150" height="40" viewBox="0 0 150 40" fill="none" xmlns="http://www.w3.org/2000/svg">
<g clip-path="url(#clip0_490_2316)">
<path d="M16.8422 37.4001C13.9885 37.4001 11.3615 36.7333 8.96118 35.3998C6.56086 34.0396 4.66728 32.1727 3.28043 29.7991C1.89358 27.3987 1.20016 24.7317 1.20016 21.798C1.20016 18.7043 1.89358 15.9706 3.28043 13.5969C4.66728 11.2233 6.53419 9.39637 8.88117 8.1162C11.2281 6.80936 13.8018 6.15594 16.6022 6.15594C19.2959 6.15594 21.5628 6.636 23.4031 7.59613C25.27 8.52959 27.0302 9.84976 28.6838 11.5567C28.7371 11.61 28.8171 11.6367 28.9238 11.6367C29.0838 11.6367 29.3639 11.5166 29.7639 11.2766L30.244 11.8767L24.7233 16.2373L24.2432 15.6372C24.4032 15.5305 24.5232 15.3972 24.6032 15.2371C24.7099 15.0504 24.7099 14.9171 24.6032 14.8371C23.4831 13.7436 22.3096 12.9168 21.0828 12.3568C19.8826 11.77 18.4158 11.4766 16.6822 11.4766C14.8686 11.4766 13.2017 11.93 11.6815 12.8368C10.1613 13.7169 8.96118 14.9438 8.08106 16.5173C7.20095 18.0908 6.76089 19.8511 6.76089 21.798C6.76089 23.6649 7.22762 25.3718 8.16107 26.9187C9.09453 28.4389 10.3347 29.639 11.8816 30.5191C13.4284 31.3993 15.082 31.8393 16.8422 31.8393C18.4958 31.8393 19.9093 31.5593 21.0828 30.9992C22.2563 30.4125 23.3631 29.5457 24.4032 28.3989L24.4832 28.2388C24.4832 28.1055 24.4165 27.9588 24.2832 27.7988C24.1765 27.6121 24.0565 27.4787 23.9232 27.3987L24.4432 26.8387L30.404 31.8393L29.9239 32.4394C29.7639 32.306 29.5639 32.186 29.3239 32.0794C29.0838 31.9727 28.9238 31.9727 28.8438 32.0794C27.1636 33.8929 25.4033 35.2398 23.5631 36.1199C21.7229 36.9733 19.4826 37.4001 16.8422 37.4001Z" fill="url(#paint0_linear_490_2316)"/>
<path d="M16.936 28.841C15.6202 28.841 14.4556 28.5654 13.4422 28.0143C12.4465 27.4453 11.6642 26.6719 11.0952 25.694C10.544 24.7161 10.2684 23.6137 10.2684 22.3869C10.2684 21.1778 10.544 20.0754 11.0952 19.0798C11.6642 18.0841 12.4554 17.3017 13.4688 16.7328C14.4823 16.146 15.638 15.8527 16.936 15.8527C18.1806 15.8527 19.3096 16.1371 20.3231 16.7061C21.3365 17.2573 22.1366 18.0307 22.7234 19.0264C23.3101 20.0043 23.6035 21.1245 23.6035 22.3869C23.6035 23.4892 23.3368 24.5382 22.8034 25.5339C22.2878 26.5118 21.5232 27.3119 20.5098 27.9343C19.4963 28.5388 18.305 28.841 16.936 28.841ZM16.936 25.774C17.985 25.774 18.8295 25.4717 19.4696 24.8672C20.1275 24.2449 20.4564 23.4448 20.4564 22.4669C20.4564 21.4534 20.1275 20.6177 19.4696 19.9599C18.8295 19.302 17.985 18.9731 16.936 18.9731C15.9581 18.9731 15.1402 19.302 14.4823 19.9599C13.8244 20.6 13.4955 21.4089 13.4955 22.3869C13.4955 23.4181 13.8244 24.2449 14.4823 24.8672C15.1402 25.4717 15.9581 25.774 16.936 25.774ZM39.6673 27.7209C39.6673 27.8098 39.7295 27.8809 39.854 27.9343C39.9962 27.9876 40.1385 28.0143 40.2807 28.0143V28.521H35.5867V28.0143C35.729 28.0143 35.8623 27.9876 35.9868 27.9343C36.129 27.8809 36.2002 27.8098 36.2002 27.7209V22.1735C36.2002 21.2667 35.9779 20.4933 35.5334 19.8532C35.0889 19.1953 34.4222 18.8664 33.5331 18.8664C32.6264 18.8664 31.8885 19.1687 31.3195 19.7732C30.7683 20.3777 30.4927 21.2489 30.4927 22.3869V27.7209C30.4927 27.8098 30.555 27.8809 30.6794 27.9343C30.8217 27.9876 30.9639 28.0143 31.1062 28.0143V28.521H26.4389V28.0143C26.5811 28.0143 26.7145 27.9876 26.8389 27.9343C26.9812 27.8809 27.0523 27.8098 27.0523 27.7209V17.0528C27.0523 16.9639 26.9812 16.8928 26.8389 16.8395C26.7145 16.7861 26.59 16.7594 26.4655 16.7594V16.2527H30.4927V17.3462C30.955 16.9195 31.4973 16.5905 32.1196 16.3594C32.7597 16.1105 33.4087 15.986 34.0665 15.986C35.2045 15.986 36.1913 16.226 37.0269 16.7061C37.8804 17.1862 38.5294 17.8351 38.9739 18.653C39.4361 19.4531 39.6673 20.351 39.6673 21.3467V27.7209ZM56.6383 27.7209C56.6383 27.8098 56.7005 27.8809 56.825 27.9343C56.9672 27.9876 57.1094 28.0143 57.2517 28.0143V28.521H52.5577V28.0143C52.7 28.0143 52.8333 27.9876 52.9578 27.9343C53.1 27.8809 53.1711 27.8098 53.1711 27.7209V22.1735C53.1711 21.2667 52.9489 20.4933 52.5044 19.8532C52.0599 19.1953 51.3931 18.8664 50.5041 18.8664C49.5973 18.8664 48.8595 19.1687 48.2905 19.7732C47.7393 20.3777 47.4637 21.2489 47.4637 22.3869V27.7209C47.4637 27.8098 47.526 27.8809 47.6504 27.9343C47.7927 27.9876 47.9349 28.0143 48.0771 28.0143V28.521H43.4099V28.0143C43.5521 28.0143 43.6855 27.9876 43.8099 27.9343C43.9522 27.8809 44.0233 27.8098 44.0233 27.7209V17.0528C44.0233 16.9639 43.9522 16.8928 43.8099 16.8395C43.6855 16.7861 43.561 16.7594 43.4365 16.7594V16.2527H47.4637V17.3462C47.926 16.9195 48.4683 16.5905 49.0906 16.3594C49.7307 16.1105 50.3797 15.986 51.0375 15.986C52.1755 15.986 53.1623 16.226 53.9979 16.7061C54.8514 17.1862 55.5003 17.8351 55.9448 18.653C56.4071 19.4531 56.6383 20.351 56.6383 21.3467V27.7209ZM66.595 15.6926C67.9641 15.6926 69.1464 15.9949 70.1421 16.5994C71.1378 17.1862 71.8935 17.9863 72.4091 18.9997C72.9247 20.0132 73.1825 21.1334 73.1825 22.3602C73.1825 22.7336 73.1559 23.107 73.1025 23.4803H63.3412C63.4124 24.3338 63.7857 25.0005 64.4614 25.4806C65.137 25.9607 65.946 26.2007 66.8884 26.2007C67.5284 26.2007 68.0619 26.1118 68.4886 25.934C68.9331 25.7562 69.3242 25.4895 69.6621 25.1339C69.6976 25.0628 69.7154 25.0183 69.7154 25.0005C69.7154 24.9294 69.6887 24.8583 69.6354 24.7872C69.5821 24.6983 69.5287 24.636 69.4754 24.6005L69.7954 24.2004L72.7558 26.5207L72.4624 26.9208C72.1957 26.7608 72.009 26.743 71.9024 26.8674C70.6578 28.361 68.9864 29.1077 66.8884 29.1077C65.5371 29.1077 64.3458 28.8144 63.3146 28.2276C62.2833 27.6231 61.4832 26.823 60.9142 25.8273C60.3631 24.8138 60.0875 23.6937 60.0875 22.4669C60.0875 21.1689 60.3631 20.0043 60.9142 18.9731C61.4654 17.9418 62.23 17.1417 63.2079 16.5728C64.2036 15.986 65.3326 15.6926 66.595 15.6926ZM69.9821 21C69.911 20.271 69.5376 19.6576 68.862 19.1598C68.2041 18.6441 67.4573 18.3863 66.6217 18.3863C65.786 18.3863 65.0659 18.6441 64.4614 19.1598C63.8569 19.6576 63.4924 20.271 63.3679 21H69.9821ZM81.9481 29.0811C80.8101 29.0811 79.7522 28.7966 78.7743 28.2276C77.7964 27.6587 77.0141 26.8852 76.4273 25.9073C75.8584 24.9294 75.5739 23.8626 75.5739 22.7069C75.5739 21.3378 75.8584 20.1377 76.4273 19.1064C77.0141 18.0574 77.7964 17.2573 78.7743 16.7061C79.7522 16.1371 80.8279 15.8527 82.0014 15.8527C82.8371 15.8527 83.5483 15.9505 84.135 16.146C84.7395 16.3416 85.2196 16.5816 85.5752 16.8661C85.9486 17.1328 86.4109 17.5151 86.962 18.0129C86.9976 18.0485 87.0421 18.0663 87.0954 18.0663C87.1665 18.0663 87.2465 18.0396 87.3354 17.9863C87.4421 17.9329 87.5221 17.8796 87.5755 17.8263L87.9222 18.1996L85.0418 20.8667L84.6951 20.4933C84.784 20.4222 84.8551 20.3244 84.9084 20.1999C84.9796 20.0577 84.9885 19.951 84.9351 19.8799C84.295 19.0975 83.4149 18.7064 82.2948 18.7064C81.2813 18.7064 80.4279 19.0442 79.7344 19.7198C79.0588 20.3955 78.721 21.2756 78.721 22.3602C78.721 23.4803 79.0499 24.3782 79.7078 25.0539C80.3656 25.7295 81.228 26.0673 82.2948 26.0673C82.8282 26.0673 83.2638 26.0051 83.6016 25.8806C83.9394 25.7384 84.3217 25.4806 84.7484 25.1072C84.784 25.0717 84.8018 25.0272 84.8018 24.9739C84.8018 24.8672 84.7395 24.7516 84.6151 24.6272L84.9351 24.2271L87.8155 26.6274L87.4955 27.0008C87.211 26.8408 87.0154 26.8141 86.9087 26.9208C86.2508 27.6498 85.5574 28.1921 84.8284 28.5477C84.1172 28.9033 83.1571 29.0811 81.9481 29.0811ZM97.3553 15.7193V19.7732H96.8486C96.8486 19.6487 96.8219 19.5331 96.7685 19.4265C96.7152 19.302 96.6441 19.2398 96.5552 19.2398H94.8216V27.7209C94.8216 27.8098 94.8839 27.8809 95.0083 27.9343C95.1328 27.9876 95.2572 28.0143 95.3817 28.0143V28.521H91.0345V28.0143C91.1589 28.0143 91.2834 27.9876 91.4078 27.9343C91.5323 27.8809 91.5945 27.8098 91.5945 27.7209V19.2398H90.3144C90.2255 19.2398 90.1543 19.302 90.101 19.4265C90.0477 19.5331 90.021 19.6487 90.021 19.7732H89.5143V15.7193H90.021C90.021 15.8438 90.0477 15.9682 90.101 16.0927C90.1543 16.1994 90.2255 16.2527 90.3144 16.2527H91.5945V13.1323C91.5945 13.0434 91.5323 12.9723 91.4078 12.9189C91.2834 12.8656 91.1589 12.8389 91.0345 12.8389V12.3322H95.3817V12.8389C95.2572 12.8389 95.1328 12.8656 95.0083 12.9189C94.8839 12.9723 94.8216 13.0434 94.8216 13.1323V16.2527H96.5552C96.6441 16.2527 96.7152 16.1994 96.7685 16.0927C96.8219 15.9682 96.8486 15.8438 96.8486 15.7193H97.3553ZM102.476 14.0124C101.907 14.0124 101.418 13.8168 101.009 13.4257C100.618 13.0345 100.422 12.5456 100.422 11.9588C100.422 11.4076 100.618 10.9365 101.009 10.5453C101.418 10.1364 101.907 9.93188 102.476 9.93188C103.045 9.93188 103.525 10.1364 103.916 10.5453C104.307 10.9365 104.502 11.4076 104.502 11.9588C104.502 12.5456 104.307 13.0345 103.916 13.4257C103.525 13.8168 103.045 14.0124 102.476 14.0124ZM100.742 17.0528C100.742 16.9639 100.671 16.8928 100.529 16.8395C100.404 16.7861 100.28 16.7594 100.155 16.7594V16.2527H104.743V16.7594C104.618 16.7594 104.485 16.7861 104.342 16.8395C104.218 16.8928 104.156 16.9639 104.156 17.0528V27.7209C104.156 27.8098 104.218 27.8809 104.342 27.9343C104.485 27.9876 104.618 28.0143 104.743 28.0143V28.521H100.155V28.0143C100.28 28.0143 100.404 27.9876 100.529 27.9343C100.671 27.8809 100.742 27.8098 100.742 27.7209V17.0528ZM114.317 29.0811C113.179 29.0811 112.121 28.7966 111.143 28.2276C110.165 27.6587 109.383 26.8852 108.796 25.9073C108.227 24.9294 107.943 23.8626 107.943 22.7069C107.943 21.3378 108.227 20.1377 108.796 19.1064C109.383 18.0574 110.165 17.2573 111.143 16.7061C112.121 16.1371 113.197 15.8527 114.37 15.8527C115.206 15.8527 115.917 15.9505 116.504 16.146C117.108 16.3416 117.588 16.5816 117.944 16.8661C118.317 17.1328 118.78 17.5151 119.331 18.0129C119.366 18.0485 119.411 18.0663 119.464 18.0663C119.535 18.0663 119.615 18.0396 119.704 17.9863C119.811 17.9329 119.891 17.8796 119.944 17.8263L120.291 18.1996L117.411 20.8667L117.064 20.4933C117.153 20.4222 117.224 20.3244 117.277 20.1999C117.348 20.0577 117.357 19.951 117.304 19.8799C116.664 19.0975 115.784 18.7064 114.664 18.7064C113.65 18.7064 112.797 19.0442 112.103 19.7198C111.428 20.3955 111.09 21.2756 111.09 22.3602C111.09 23.4803 111.419 24.3782 112.077 25.0539C112.734 25.7295 113.597 26.0673 114.664 26.0673C115.197 26.0673 115.633 26.0051 115.97 25.8806C116.308 25.7384 116.691 25.4806 117.117 25.1072C117.153 25.0717 117.171 25.0272 117.171 24.9739C117.171 24.8672 117.108 24.7516 116.984 24.6272L117.304 24.2271L120.184 26.6274L119.864 27.0008C119.58 26.8408 119.384 26.8141 119.278 26.9208C118.62 27.6498 117.926 28.1921 117.197 28.5477C116.486 28.9033 115.526 29.0811 114.317 29.0811ZM134.578 27.7209C134.578 27.8098 134.64 27.8809 134.765 27.9343C134.907 27.9876 135.04 28.0143 135.165 28.0143V28.521H131.858V27.5342C130.915 28.3521 129.822 28.761 128.577 28.761C126.71 28.761 125.341 28.2276 124.47 27.1608C123.599 26.0762 123.163 24.7249 123.163 23.107V17.0528C123.163 16.9639 123.092 16.8928 122.95 16.8395C122.825 16.7861 122.701 16.7594 122.577 16.7594V16.2527H127.11V16.7594C126.986 16.7594 126.853 16.7861 126.71 16.8395C126.586 16.8928 126.524 16.9639 126.524 17.0528V22.8936C126.524 23.6581 126.719 24.3071 127.11 24.8405C127.502 25.3561 128.106 25.6139 128.924 25.6139C129.706 25.6139 130.293 25.3739 130.684 24.8939C131.075 24.4138 131.271 23.8004 131.271 23.0536V17.0528C131.271 16.9639 131.2 16.8928 131.058 16.8395C130.933 16.7861 130.809 16.7594 130.684 16.7594V16.2527H135.165V16.7594C135.04 16.7594 134.907 16.7861 134.765 16.8395C134.64 16.8928 134.578 16.9639 134.578 17.0528V27.7209ZM143.471 28.921C142.565 28.921 141.684 28.7344 140.831 28.361C139.995 27.9876 139.151 27.4542 138.297 26.7608C138.262 26.7252 138.217 26.7074 138.164 26.7074C138.022 26.7074 137.871 26.7874 137.711 26.9475L137.337 26.6274L140.004 23.587L140.378 23.9337C140.306 24.0226 140.244 24.1293 140.191 24.2538C140.155 24.3782 140.173 24.476 140.244 24.5471C140.831 25.0805 141.373 25.4806 141.871 25.7473C142.387 25.9962 142.92 26.1207 143.471 26.1207C144.84 26.1207 145.525 25.6673 145.525 24.7605C145.525 24.3516 145.312 24.0404 144.885 23.827C144.476 23.5959 143.783 23.347 142.805 23.0803C141.542 22.7425 140.627 22.3068 140.058 21.7734C139.489 21.2223 139.204 20.4755 139.204 19.5331C139.204 18.413 139.569 17.5062 140.298 16.8128C141.027 16.1016 142.022 15.746 143.285 15.746C143.925 15.746 144.503 15.8438 145.018 16.0394C145.534 16.2349 146.156 16.5816 146.885 17.0795C146.903 17.0973 146.938 17.1062 146.992 17.1062C147.081 17.1062 147.17 17.0795 147.259 17.0261C147.347 16.9728 147.41 16.9195 147.445 16.8661L147.845 17.2128L145.445 19.9332L145.072 19.6132C145.143 19.542 145.187 19.4531 145.205 19.3465C145.24 19.222 145.223 19.1242 145.152 19.0531C144.832 18.8042 144.52 18.6175 144.218 18.493C143.934 18.3685 143.614 18.3063 143.258 18.3063C142.885 18.3063 142.591 18.3774 142.378 18.5197C142.165 18.6619 142.058 18.8753 142.058 19.1598C142.058 19.3909 142.12 19.5776 142.245 19.7198C142.369 19.8621 142.591 20.0043 142.911 20.1466C143.249 20.2888 143.756 20.4666 144.431 20.68C145.676 21.0533 146.654 21.5779 147.365 22.2535C148.076 22.9114 148.432 23.7293 148.432 24.7072C148.432 26.1474 147.979 27.2142 147.072 27.9076C146.165 28.5832 144.965 28.921 143.471 28.921Z" fill="url(#paint1_linear_490_2316)"/>
</g>
<defs>
<linearGradient id="paint0_linear_490_2316" x1="15.5" y1="2.9723e-06" x2="29.5257" y2="34.4465" gradientUnits="userSpaceOnUse">
<stop stop-color="#023564"/>
<stop offset="1" stop-color="#2A97FC"/>
</linearGradient>
<linearGradient id="paint1_linear_490_2316" x1="9.33496" y1="17.021" x2="149.335" y2="17.021" gradientUnits="userSpaceOnUse">
<stop stop-color="#023564"/>
<stop offset="1" stop-color="#2A97FC"/>
</linearGradient>
<clipPath id="clip0_490_2316">
<rect width="149.231" height="40" fill="white"/>
</clipPath>
</defs>
</svg>
