<svg width="58" height="58" viewBox="0 0 58 58" fill="none" xmlns="http://www.w3.org/2000/svg">
<g filter="url(#filter0_d_527_7358)">
<rect x="8" y="8" width="42" height="42" rx="12" fill="white" shape-rendering="crispEdges"/>
<g filter="url(#filter1_d_527_7358)">
<path d="M19.6667 28.999H17L29 16.999L41 28.999H38.3333M19.6667 28.999V38.3324C19.6667 39.0396 19.9476 39.7179 20.4477 40.218C20.9478 40.7181 21.6261 40.999 22.3333 40.999H35.6667C36.3739 40.999 37.0522 40.7181 37.5523 40.218C38.0524 39.7179 38.3333 39.0396 38.3333 38.3324V28.999" stroke="#023564" stroke-width="1.6" stroke-linecap="round" stroke-linejoin="round"/>
<path d="M25 40.9987V32.9987C25 32.2915 25.281 31.6132 25.781 31.1131C26.2811 30.613 26.9594 30.332 27.6667 30.332H30.3333C31.0406 30.332 31.7189 30.613 32.219 31.1131C32.719 31.6132 33 32.2915 33 32.9987V40.9987" stroke="#023564" stroke-width="1.6" stroke-linecap="round" stroke-linejoin="round"/>
</g>
</g>
<defs>
<filter id="filter0_d_527_7358" x="0" y="0" width="58" height="58" filterUnits="userSpaceOnUse" color-interpolation-filters="sRGB">
<feFlood flood-opacity="0" result="BackgroundImageFix"/>
<feColorMatrix in="SourceAlpha" type="matrix" values="0 0 0 0 0 0 0 0 0 0 0 0 0 0 0 0 0 0 127 0" result="hardAlpha"/>
<feOffset/>
<feGaussianBlur stdDeviation="4"/>
<feComposite in2="hardAlpha" operator="out"/>
<feColorMatrix type="matrix" values="0 0 0 0 0 0 0 0 0 0 0 0 0 0 0 0 0 0 0.08 0"/>
<feBlend mode="normal" in2="BackgroundImageFix" result="effect1_dropShadow_527_7358"/>
<feBlend mode="normal" in="SourceGraphic" in2="effect1_dropShadow_527_7358" result="shape"/>
</filter>
<filter id="filter1_d_527_7358" x="9" y="9" width="40" height="40" filterUnits="userSpaceOnUse" color-interpolation-filters="sRGB">
<feFlood flood-opacity="0" result="BackgroundImageFix"/>
<feColorMatrix in="SourceAlpha" type="matrix" values="0 0 0 0 0 0 0 0 0 0 0 0 0 0 0 0 0 0 127 0" result="hardAlpha"/>
<feOffset/>
<feGaussianBlur stdDeviation="2"/>
<feComposite in2="hardAlpha" operator="out"/>
<feColorMatrix type="matrix" values="0 0 0 0 0 0 0 0 0 0 0 0 0 0 0 0 0 0 0.25 0"/>
<feBlend mode="normal" in2="BackgroundImageFix" result="effect1_dropShadow_527_7358"/>
<feBlend mode="normal" in="SourceGraphic" in2="effect1_dropShadow_527_7358" result="shape"/>
</filter>
</defs>
</svg>
