<svg width="20" height="17" viewBox="0 0 20 17" fill="none" xmlns="http://www.w3.org/2000/svg">
<path d="M10.088 1.02584C11.562 0.30121 13.1917 -0.0492035 14.8333 0.00556117C16.4748 0.0603258 18.0776 0.518582 19.5 1.33984C19.6347 1.4176 19.7494 1.52569 19.8349 1.65554C19.9205 1.78539 19.9746 1.93341 19.993 2.08784L20 2.20584V15.2058C20 15.3814 19.9538 15.5538 19.866 15.7058C19.7782 15.8578 19.652 15.9841 19.5 16.0718C19.348 16.1596 19.1755 16.2058 19 16.2058C18.8245 16.2058 18.652 16.1596 18.5 16.0718C17.2838 15.3697 15.9043 15 14.5 15C13.0957 15 11.7162 15.3697 10.5 16.0718C10.348 16.1596 10.1755 16.2058 10 16.2058C9.82446 16.2058 9.65202 16.1596 9.5 16.0718C8.32866 15.3954 7.00494 15.0271 5.65257 15.0012C4.30021 14.9753 2.96337 15.2928 1.767 15.9238L1.44 16.1038L1.337 16.1478L1.288 16.1638L1.178 16.1898L1.117 16.1998L1 16.2058H0.958L0.848 16.1938L0.771 16.1798L0.663 16.1478L0.537 16.0918L0.442 16.0358L0.353 15.9688L0.293 15.9128L0.22 15.8308L0.156 15.7418L0.134 15.7058L0.102 15.6458L0.0580001 15.5428L0.0420001 15.4938L0.016 15.3838L0.00600004 15.3228L0.00200009 15.2738L0 15.2058V2.20584C4.45922e-06 2.0303 0.0462129 1.85787 0.133981 1.70585C0.221749 1.55384 0.347985 1.4276 0.5 1.33984C1.9224 0.518582 3.52518 0.0603258 5.16672 0.00556117C6.80827 -0.0492035 8.43803 0.30121 9.912 1.02584L10 1.06984L10.088 1.02584Z" fill="#023564"/>
</svg>
